<?xml version="1.0" standalone="no"?><!DOCTYPE svg PUBLIC "-//W3C//DTD SVG 1.1//EN" "http://www.w3.org/Graphics/SVG/1.1/DTD/svg11.dtd"><svg t="1753523457853" class="icon" viewBox="0 0 1024 1024" version="1.1" xmlns="http://www.w3.org/2000/svg" p-id="3180" xmlns:xlink="http://www.w3.org/1999/xlink" width="200" height="200"><path d="M128 836.992v0.64c1.28 58.88 48.064 106.368 107.008 106.368H832c35.328 0 64-28.224 64-63.552V143.936a63.936 63.936 0 0 0-64-63.936H256c-70.72 0-128 56.832-128 127.552v629.44z m179.2-386.816V204.8c0-14.08 11.52-25.6 25.6-25.6h153.6c14.144 0 25.6 11.52 25.6 25.6v245.376a25.6 25.6 0 0 1-43.712 18.112l-40.576-40.576a25.6 25.6 0 0 0-36.224 0l-40.576 40.576a25.6 25.6 0 0 1-43.712-18.112z m-78.336 406.4Q217.6 845.44 217.6 829.44q0-15.872 11.264-27.136 11.2-11.264 27.136-11.264h550.4v76.8H256q-15.936 0-27.136-11.264z" fill="#303133" p-id="3181"></path></svg>